<svg width="27" height="38" viewBox="0 0 27 38" fill="none" xmlns="http://www.w3.org/2000/svg">
<path d="M3.375 3.8H0V0H27V3.8H23.625V7.6C23.625 10.6685 22.248 13.1385 20.5133 15.1563C19.3269 16.5357 17.8841 17.8068 16.4211 19C17.8841 20.1932 19.3269 21.4643 20.5133 22.8437C22.248 24.8615 23.625 27.3315 23.625 30.4V34.2H27V38H0V34.2H3.375V30.4C3.375 27.3315 4.752 24.8615 6.48675 22.8437C7.67306 21.4643 9.11588 20.1932 10.5789 19C9.11588 17.8068 7.67306 16.5357 6.48675 15.1563C4.752 13.1385 3.375 10.6685 3.375 7.6V3.8ZM6.75 3.8V7.6C6.75 8.9015 7.18875 10.1365 8.05106 11.4H18.9489C19.8096 10.1365 20.25 8.9015 20.25 7.6V3.8H6.75ZM13.5 21.3218C11.7366 22.724 10.1385 24.0597 8.91169 25.4866C8.60631 25.8391 8.31897 26.2108 8.05106 26.6H18.9489C18.681 26.2108 18.3937 25.8391 18.0883 25.4866C16.8615 24.0597 15.2634 22.724 13.5 21.3218Z" fill="black"/>
</svg>
