<svg width="37" height="34" viewBox="0 0 37 34" fill="none" xmlns="http://www.w3.org/2000/svg">
<path d="M18.5 0C8.2991 0 0 7.6262 0 17V24.0431C0 25.7839 1.65945 27.2 3.7 27.2H5.55C6.04065 27.2 6.5112 27.0209 6.85815 26.7021C7.20509 26.3833 7.4 25.9509 7.4 25.5V16.7569C7.4 16.306 7.20509 15.8736 6.85815 15.5548C6.5112 15.236 6.04065 15.0569 5.55 15.0569H3.8702C4.8988 8.4779 11.0593 3.4 18.5 3.4C25.9407 3.4 32.1012 8.4779 33.1298 15.0569H31.45C30.9593 15.0569 30.4888 15.236 30.1419 15.5548C29.7949 15.8736 29.6 16.306 29.6 16.7569V27.2C29.6 29.0751 27.9406 30.6 25.9 30.6H22.2V28.9H14.8V34H25.9C29.9811 34 33.3 30.9502 33.3 27.2C35.3406 27.2 37 25.7839 37 24.0431V17C37 7.6262 28.7009 0 18.5 0Z" fill="black"/>
</svg>
