<svg width="37" height="28" viewBox="0 0 37 28" fill="none" xmlns="http://www.w3.org/2000/svg">
<path d="M17.1307 16.4666L1.33106 27.845C1.20207 27.9378 1.05222 27.9909 0.897464 27.9989C0.742707 28.0069 0.58884 27.9694 0.45225 27.8905C0.315661 27.8115 0.201464 27.6939 0.121824 27.5504C0.0421828 27.4068 8.00355e-05 27.2426 0 27.0753V0.924746C8.00355e-05 0.757387 0.0421828 0.593187 0.121824 0.449631C0.201464 0.306076 0.315661 0.188542 0.45225 0.109549C0.58884 0.0305553 0.742707 -0.00693985 0.897464 0.00105703C1.05222 0.00905392 1.20207 0.0622437 1.33106 0.15496L17.1307 11.5315V0.924746C17.1308 0.757387 17.1729 0.593187 17.2526 0.449631C17.3322 0.306076 17.4464 0.188542 17.583 0.109549C17.7196 0.0305553 17.8734 -0.00693985 18.0282 0.00105703C18.183 0.00905392 18.3328 0.0622437 18.4618 0.15496L36.6186 13.2302C36.736 13.3147 36.8321 13.4292 36.8987 13.5635C36.9652 13.6977 37 13.8477 37 14C37 14.1523 36.9652 14.3023 36.8987 14.4365C36.8321 14.5708 36.736 14.6853 36.6186 14.7698L18.4618 27.845C18.3328 27.9378 18.183 27.9909 18.0282 27.9989C17.8734 28.0069 17.7196 27.9694 17.583 27.8905C17.4464 27.8115 17.3322 27.6939 17.2526 27.5504C17.1729 27.4068 17.1308 27.2426 17.1307 27.0753V16.4666ZM14.3795 14L3.42615 6.11155V21.8885L14.3795 14ZM20.5569 6.11155V21.8885L31.5103 14L20.5569 6.11155Z" fill="black"/>
</svg>
