<svg width="200" height="200" viewBox="0 0 200 200" fill="none" xmlns="http://www.w3.org/2000/svg">
<path d="M61.3 1.20001C60.0768 1.40345 58.9209 1.89959 57.9308 2.64616C33.2385 18.8539 16.8308 46.6769 16.8308 78.3692C16.8308 125.838 53.5 164.854 100 168.754V177.885C84.5154 179.662 73.3154 186.062 73.3154 186.062C71.9695 186.874 70.9242 188.103 70.337 189.561C69.7497 191.02 69.6522 192.63 70.0592 194.148C70.4662 195.667 71.3557 197.013 72.5937 197.982C73.8317 198.951 75.3511 199.492 76.9231 199.523H138.462C140.034 199.492 141.553 198.951 142.791 197.982C144.029 197.013 144.918 195.667 145.325 194.148C145.732 192.63 145.635 191.02 145.048 189.561C144.46 188.103 143.415 186.874 142.069 186.062C142.069 186.062 130.869 179.662 115.385 177.885V168.992C130.41 167.68 144.87 162.638 157.454 154.323C158.431 153.839 159.293 153.153 159.985 152.31C160.676 151.467 161.181 150.486 161.465 149.434C161.749 148.381 161.805 147.28 161.631 146.204C161.458 145.128 161.057 144.101 160.456 143.191C159.855 142.281 159.067 141.51 158.146 140.927C157.224 140.345 156.189 139.966 155.109 139.814C154.03 139.662 152.93 139.741 151.884 140.046C150.837 140.352 149.867 140.876 149.039 141.585C137.173 149.384 123.329 153.637 109.131 153.846C108.18 153.665 107.204 153.665 106.254 153.846C86.4819 153.477 67.645 145.361 53.7969 131.244C39.9487 117.126 32.1962 98.137 32.2077 78.3616C32.2154 51.9462 45.8462 28.8462 66.3462 15.3846C67.8521 14.4634 68.9953 13.0523 69.584 11.3881C70.1727 9.72382 70.171 7.90773 69.5794 6.24455C68.9877 4.58136 67.842 3.17229 66.3345 2.25377C64.8269 1.33525 63.0494 0.96319 61.3 1.20001ZM107.692 9.13847C95.7842 9.11608 84.0853 12.2678 73.8 18.2692C72.8077 18.7154 71.8539 19.3462 70.9154 19.9539C69.7064 20.7206 68.5776 21.6071 67.5462 22.6C50.8924 34.9692 39.9 54.6693 39.9 76.9231C39.9 90.1 43.6847 102.308 50.2385 112.738C50.4892 113.263 50.8129 113.75 51.2 114.185C63.3693 132.469 84.177 144.715 107.692 144.715C120.744 144.767 133.526 141.005 144.469 133.892C144.823 133.669 145.1 133.415 145.431 133.177C163.469 120.962 175.485 100.246 175.485 76.9231C175.508 64.536 172.095 52.3853 165.623 41.8231C165.301 40.8139 164.723 39.9051 163.946 39.1846C163.877 39.0923 163.762 39.0308 163.7 38.9385C163.552 38.7711 163.396 38.6119 163.231 38.4616C150.946 20.8769 130.662 9.13847 107.692 9.13847ZM107.692 21.6385C112.643 21.634 117.572 22.2806 122.354 23.5616L113.939 29.0846C111.169 26.9308 108.323 24.9769 105.531 23.3154C104.631 22.7846 103.792 22.3539 102.885 21.8769C104.483 21.7313 106.087 21.6517 107.692 21.6385ZM83.8924 28.6077C88.0231 28.5308 93.2616 30.0846 99.277 33.6539C100.423 34.3308 101.723 35.2462 102.885 36.0616L72.5924 55.5231C72.3385 54.1385 72.0154 52.7539 71.877 51.4462C70.6693 40.3077 73.5385 33.0846 77.8847 30.2923C77.9462 30.2539 78.0693 30.3231 78.1231 30.2923C79.7231 29.3154 81.5154 28.6462 83.8924 28.6V28.6077ZM135.815 29.5692C135.897 29.5709 135.98 29.5709 136.062 29.5692C141.651 32.8345 146.615 37.067 150.723 42.0692L135.339 51.9231C131.577 46.6616 127.731 41.7154 123.554 37.5L135.815 29.5692ZM112.739 44.4692C117.14 48.8494 121.162 53.5946 124.762 58.6539L84.1308 84.8539C81.0198 79.4798 78.3693 73.852 76.2077 68.0308L112.739 44.4692ZM59.6154 49.5231C59.677 50.5616 59.7385 51.5923 59.8539 52.6462C60.2 55.8231 60.9924 59.1385 61.777 62.5L53.1231 68.0308C54.1547 61.5208 56.3541 55.2509 59.6154 49.5231ZM157.215 52.4077C159.985 58.0385 162.023 64.1308 162.739 70.6769C162.571 70.8271 162.412 70.9863 162.262 71.1539L150 79.0846C147.923 73.5539 145.269 67.8539 142.069 62.2616L157.215 52.4077ZM131.492 68.9923C134.611 74.3635 137.264 79.9917 139.423 85.8154L102.646 109.377C98.2451 104.997 94.223 100.252 90.6231 95.1923L131.492 68.9923ZM65.3847 74.7616C67.4923 80.3231 70.3231 85.9693 73.5616 91.5846L58.177 101.438C55.2498 95.6457 53.3746 89.3792 52.6385 82.9308L65.3847 74.7693V74.7616ZM162.262 85.8154C161.23 92.3254 159.031 98.5953 155.769 104.323C155.708 103.208 155.654 102.092 155.531 100.962C155.192 97.8693 154.608 94.6077 153.846 91.3462L162.262 85.8154ZM142.785 98.3154C143.031 99.6616 143.369 101.131 143.508 102.4C144.715 113.538 141.846 120.523 137.5 123.323C133.154 126.115 125.731 125.908 116.108 120.192C114.962 119.515 113.662 118.6 112.5 117.785L142.792 98.3231L142.785 98.3154ZM80.0462 101.923C83.6605 107.046 87.6811 111.869 92.0693 116.346L79.3308 124.523C73.7435 121.252 68.7775 117.021 64.6616 112.023L80.0462 101.923ZM101.685 124.762C104.369 126.831 107.146 128.685 109.854 130.285C110.915 130.915 111.908 131.415 112.977 131.977C111.22 132.132 109.456 132.209 107.692 132.208C102.742 132.211 97.8127 131.565 93.0308 130.285L101.685 124.762Z" fill="#928D8D"/>
</svg>
