<svg width="39" height="39" viewBox="0 0 39 39" fill="none" xmlns="http://www.w3.org/2000/svg">
<path d="M36.9679 19.5C38.074 18.5131 38.7757 17.1519 38.938 15.6785C39.1002 14.2051 38.7115 12.7237 37.8467 11.5198C36.9819 10.3159 35.7022 9.47461 34.2541 9.15795C32.806 8.84129 31.292 9.07169 30.0036 9.80477V5.99533C30.0023 4.77675 29.63 3.58746 28.9364 2.58557C28.2427 1.58368 27.2606 0.816646 26.1205 0.386456C24.9803 -0.0437337 23.7363 -0.116703 22.5537 0.177249C21.3711 0.471202 20.306 1.11815 19.5 2.03208C18.5131 0.926034 17.1519 0.224293 15.6785 0.0620364C14.2051 -0.10022 12.7237 0.288485 11.5198 1.15328C10.3159 2.01807 9.47461 3.29777 9.15795 4.74586C8.84129 6.19396 9.07169 7.70801 9.80477 8.99637H5.99533C4.77675 8.99774 3.58746 9.36999 2.58557 10.0636C1.58368 10.7573 0.816646 11.7394 0.386456 12.8795C-0.0437337 14.0197 -0.116703 15.2637 0.177249 16.4463C0.471202 17.6289 1.11815 18.694 2.03208 19.5C0.926034 20.4869 0.224293 21.8481 0.0620364 23.3215C-0.10022 24.7949 0.288485 26.2763 1.15328 27.4802C2.01807 28.6841 3.29777 29.5254 4.74586 29.8421C6.19396 30.1587 7.70801 29.9283 8.99637 29.1952V33.0047C8.99774 34.2232 9.36999 35.4125 10.0636 36.4144C10.7573 37.4163 11.7394 38.1834 12.8795 38.6135C14.0197 39.0437 15.2637 39.1167 16.4463 38.8228C17.6289 38.5288 18.694 37.8819 19.5 36.9679C20.4869 38.074 21.8481 38.7757 23.3215 38.938C24.7949 39.1002 26.2763 38.7115 27.4802 37.8467C28.6841 36.9819 29.5254 35.7022 29.8421 34.2541C30.1587 32.806 29.9283 31.292 29.1952 30.0036H33.0047C34.2232 30.0023 35.4125 29.63 36.4144 28.9364C37.4163 28.2427 38.1834 27.2606 38.6135 26.1205C39.0437 24.9803 39.1167 23.7363 38.8228 22.5537C38.5288 21.3711 37.8819 20.306 36.9679 19.5ZM8.99637 24.0016C8.99637 24.5951 8.82036 25.1753 8.4906 25.6688C8.16084 26.1624 7.69214 26.547 7.14378 26.7742C6.59541 27.0013 5.992 27.0607 5.40985 26.9449C4.82771 26.8291 4.29298 26.5433 3.87327 26.1236C3.45357 25.7039 3.16775 25.1692 3.05195 24.587C2.93616 24.0049 2.99559 23.4015 3.22273 22.8531C3.44987 22.3047 3.83452 21.836 4.32804 21.5063C4.82156 21.1765 5.40178 21.0005 5.99533 21.0005H8.99637V24.0016ZM17.9995 33.0047C17.9995 33.8006 17.6833 34.5639 17.1205 35.1267C16.5577 35.6895 15.7944 36.0057 14.9984 36.0057C14.2025 36.0057 13.4392 35.6895 12.8764 35.1267C12.3136 34.5639 11.9974 33.8006 11.9974 33.0047V24.0016C11.9974 23.2056 12.3136 22.4423 12.8764 21.8795C13.4392 21.3167 14.2025 21.0005 14.9984 21.0005H17.9995V33.0047ZM17.9995 17.9995H5.99533C5.1994 17.9995 4.43608 17.6833 3.87327 17.1205C3.31047 16.5577 2.99429 15.7944 2.99429 14.9984C2.99429 14.2025 3.31047 13.4392 3.87327 12.8764C4.43608 12.3136 5.1994 11.9974 5.99533 11.9974H14.9984C15.7944 11.9974 16.5577 12.3136 17.1205 12.8764C17.6833 13.4392 17.9995 14.2025 17.9995 14.9984V17.9995ZM17.9995 8.99637H14.9984C14.4049 8.99637 13.8247 8.82036 13.3312 8.4906C12.8376 8.16084 12.453 7.69214 12.2258 7.14378C11.9987 6.59541 11.9393 5.992 12.0551 5.40985C12.1709 4.82771 12.4567 4.29298 12.8764 3.87327C13.2961 3.45357 13.8308 3.16775 14.413 3.05195C14.9951 2.93616 15.5985 2.99559 16.1469 3.22273C16.6953 3.44987 17.164 3.83452 17.4937 4.32804C17.8235 4.82156 17.9995 5.40178 17.9995 5.99533V8.99637ZM21.0005 5.99533C21.0005 5.1994 21.3167 4.43608 21.8795 3.87327C22.4423 3.31047 23.2056 2.99429 24.0016 2.99429C24.7975 2.99429 25.5608 3.31047 26.1236 3.87327C26.6864 4.43608 27.0026 5.1994 27.0026 5.99533V14.9984C27.0026 15.7944 26.6864 16.5577 26.1236 17.1205C25.5608 17.6833 24.7975 17.9995 24.0016 17.9995H21.0005V5.99533ZM24.0016 36.0057C23.2056 36.0057 22.4423 35.6895 21.8795 35.1267C21.3167 34.5639 21.0005 33.8006 21.0005 33.0047V30.0036H24.0016C24.7975 30.0036 25.5608 30.3198 26.1236 30.8826C26.6864 31.4454 27.0026 32.2087 27.0026 33.0047C27.0026 33.8006 26.6864 34.5639 26.1236 35.1267C25.5608 35.6895 24.7975 36.0057 24.0016 36.0057ZM33.0047 27.0026H24.0016C23.2056 27.0026 22.4423 26.6864 21.8795 26.1236C21.3167 25.5608 21.0005 24.7975 21.0005 24.0016V21.0005H33.0047C33.8006 21.0005 34.5639 21.3167 35.1267 21.8795C35.6895 22.4423 36.0057 23.2056 36.0057 24.0016C36.0057 24.7975 35.6895 25.5608 35.1267 26.1236C34.5639 26.6864 33.8006 27.0026 33.0047 27.0026ZM33.0047 17.9995H30.0036V14.9984C30.0036 14.4049 30.1796 13.8247 30.5094 13.3312C30.8392 12.8376 31.3079 12.453 31.8562 12.2258C32.4046 11.9987 33.008 11.9393 33.5901 12.0551C34.1723 12.1709 34.707 12.4567 35.1267 12.8764C35.5464 13.2961 35.8323 13.8308 35.948 14.413C36.0638 14.9951 36.0044 15.5985 35.7773 16.1469C35.5501 16.6953 35.1655 17.164 34.672 17.4937C34.1784 17.8235 33.5982 17.9995 33.0047 17.9995Z" fill="white"/>
</svg>
